<?xml version="1.0" standalone="no"?>
<!DOCTYPE svg PUBLIC "-//W3C//DTD SVG 20010904//EN"
 "http://www.w3.org/TR/2001/REC-SVG-20010904/DTD/svg10.dtd">
<svg version="1.0" xmlns="http://www.w3.org/2000/svg"
 width="954.000000pt" height="954.000000pt" viewBox="0 0 954.000000 954.000000"
 preserveAspectRatio="xMidYMid meet">
<metadata>
Created by potrace 1.11, written by Peter Selinger 2001-2013
</metadata>
<g transform="translate(0.000000,954.000000) scale(0.100000,-0.100000)"
fill="#000000" stroke="none">
<path d="M4490 9529 c-1497 -120 -2821 -907 -3642 -2164 -714 -1093 -943
-2458 -627 -3745 302 -1233 1099 -2303 2208 -2964 969 -577 2155 -786 3291
-580 823 149 1587 516 2240 1074 147 125 428 411 552 560 493 595 824 1265
993 2012 l35 153 0 894 0 894 -36 160 c-173 775 -540 1495 -1070 2097 -126
143 -386 398 -519 508 -741 616 -1595 979 -2555 1087 -172 20 -698 28 -870 14z
m850 -324 c653 -78 1264 -282 1790 -598 l105 -63 3 -1220 2 -1219 -1535 1535
c-1422 1422 -1533 1535 -1509 1542 22 6 234 30 374 42 110 10 642 -3 770 -19z
m2304 -953 c392 -314 763 -737 1020 -1160 242 -399 415 -819 526 -1272 l30
-125 -835 -835 -835 -835 0 2148 c0 1181 2 2147 5 2147 2 0 42 -31 89 -68z
m-1893 -1342 c3 -135 7 -264 8 -287 1 -35 4 -43 20 -43 11 0 22 9 26 19 3 11
17 23 30 28 13 4 34 24 47 43 13 19 32 37 43 39 10 2 28 15 39 30 12 14 37 43
57 64 l37 39 187 -184 c103 -100 201 -200 218 -221 l30 -39 -17 -81 c-9 -45
-21 -100 -27 -122 -43 -181 -69 -452 -48 -510 5 -16 13 -64 16 -105 5 -64 2
-83 -17 -127 -12 -29 -28 -58 -36 -64 -30 -24 -10 -129 24 -129 28 0 95 -169
91 -230 -5 -70 -3 -418 3 -535 7 -133 18 -187 43 -215 26 -29 15 -55 -23 -55
-29 0 -35 -5 -52 -43 -16 -34 -17 -47 -8 -67 10 -22 8 -29 -11 -49 -23 -24
-23 -24 -3 -35 12 -6 38 -11 58 -11 37 0 114 -42 114 -61 0 -11 -118 0 -143
13 -12 6 -23 5 -33 -2 -8 -8 -27 -10 -50 -5 -49 9 -41 -17 8 -27 20 -4 51 -16
70 -28 18 -11 41 -20 51 -20 23 0 67 -48 60 -65 -2 -8 7 -30 22 -49 14 -19 22
-36 18 -38 -8 -4 -223 17 -233 22 -3 2 -25 4 -50 5 -25 0 -66 7 -92 15 -36 10
-51 11 -59 3 -8 -8 13 -23 83 -57 52 -25 101 -46 110 -46 8 0 32 -13 52 -29
21 -17 43 -28 51 -25 7 3 30 -9 51 -27 22 -18 41 -34 43 -36 2 -1 -4 -9 -13
-18 -9 -9 -16 -21 -16 -27 0 -18 -50 1 -113 43 -123 82 -238 129 -313 129 -89
0 -97 -46 -22 -117 24 -22 84 -79 133 -126 50 -47 106 -98 125 -114 62 -50
120 -126 107 -140 -9 -8 -49 18 -75 48 -28 34 -52 38 -52 9 0 -25 -18 -26 -27
-2 -8 21 -28 42 -41 42 -5 0 -30 16 -55 35 -25 19 -48 35 -51 35 -3 0 -29 18
-58 40 -47 35 -78 49 -78 35 0 -2 13 -26 28 -52 30 -51 62 -142 62 -175 0 -15
-5 -18 -22 -13 -13 4 -34 18 -49 31 -14 13 -31 24 -39 24 -7 0 -28 15 -46 34
-37 38 -69 39 -102 2 -16 -17 -22 -44 -29 -133 -6 -62 -15 -119 -22 -127 -7
-9 -35 -19 -62 -22 -45 -6 -75 -23 -136 -74 -19 -16 -16 -60 6 -100 11 -19 25
-46 31 -60 6 -14 22 -39 36 -57 13 -17 24 -36 24 -42 0 -14 56 -52 65 -43 4 4
5 -5 3 -21 -3 -15 -2 -30 3 -33 5 -2 6 -17 3 -32 -2 -15 -1 -57 4 -95 l8 -67
-905 0 -906 1 -747 745 -748 744 0 65 c0 79 10 90 87 98 78 9 301 9 334 1 19
-4 46 3 90 24 35 17 72 33 81 36 27 8 36 65 30 184 -5 105 -3 114 21 164 37
75 62 251 53 384 -8 133 5 196 48 229 39 29 66 120 66 218 0 42 5 68 13 76 22
17 36 104 47 276 13 198 25 324 33 331 9 10 27 -6 27 -23 0 -9 6 -24 13 -32
19 -23 36 -108 43 -220 9 -138 15 -144 136 -149 92 -4 95 -4 115 22 17 22 19
32 12 64 -5 20 -9 44 -9 52 0 16 155 100 185 100 13 0 15 5 9 18 -4 9 -9 36
-12 59 -3 36 0 44 22 58 14 9 30 14 35 11 19 -12 62 6 71 30 8 20 14 22 44 17
46 -7 103 4 109 22 3 7 1 27 -6 44 -9 24 -18 31 -37 31 -14 0 -30 4 -36 10 -5
5 -27 12 -49 15 -22 3 -51 10 -65 15 -14 5 -68 11 -120 14 -52 3 -104 7 -114
9 -24 5 -94 74 -102 102 -4 11 -22 35 -40 53 -32 31 -37 33 -82 26 -58 -8 -72
-19 -72 -53 0 -15 -7 -37 -16 -49 -9 -13 -14 -29 -11 -36 3 -7 -4 -18 -14 -24
-10 -7 -19 -23 -19 -37 0 -14 -4 -25 -9 -25 -11 0 -21 182 -24 437 l-2 193
225 225 225 225 970 -2 970 -3 6 -245z m-2963 -958 c3 -17 -2 -22 -17 -22 -16
0 -21 6 -21 26 0 33 33 30 38 -4z m4452 -1264 l0 -974 -70 -69 -70 -69 0 1114
0 1115 70 -71 70 -72 0 -974z m-4710 800 c11 -18 20 -41 20 -51 0 -28 -39 -2
-55 36 -23 55 4 66 35 15z m6769 -357 c14 -168 14 -558 1 -716 -59 -694 -271
-1364 -614 -1932 l-68 -113 -1139 0 c-626 0 -1139 3 -1139 7 0 5 660 668 1468
1476 1388 1388 1467 1466 1474 1440 3 -16 11 -88 17 -162z m-6428 -596 c24 -9
50 -23 57 -32 9 -12 12 -72 12 -215 0 -165 -2 -200 -15 -204 -13 -5 -81 16
-147 47 -39 17 -48 59 -48 219 0 196 23 226 141 185z m-257 -344 c7 -10 -22
-37 -30 -28 -9 8 3 37 15 37 5 0 12 -4 15 -9z m3967 -717 c12 -14 11 -16 -5
-13 -11 2 -21 10 -24 17 -5 17 13 15 29 -4z m-441 -340 c0 -8 -4 -14 -10 -14
-5 0 -10 9 -10 21 0 11 5 17 10 14 6 -3 10 -13 10 -21z"/>
<path d="M4151 6227 c-8 -10 -7 -19 4 -33 8 -10 15 -27 15 -36 0 -10 7 -18 15
-18 8 0 27 -16 42 -35 15 -19 34 -35 41 -35 28 0 3 110 -36 153 -18 20 -65 23
-81 4z"/>
<path d="M4218 5220 c-31 -10 -71 -28 -88 -41 -17 -13 -43 -34 -59 -47 -20
-15 -31 -34 -34 -60 -3 -20 -9 -50 -12 -65 -5 -19 -1 -40 13 -70 12 -23 24
-53 27 -67 2 -14 29 -50 57 -81 45 -47 64 -59 127 -79 86 -27 208 -31 356 -11
93 13 106 20 98 52 -3 11 6 31 21 50 18 21 25 37 20 48 -4 9 -10 51 -15 94 -4
43 -12 84 -19 91 -6 8 -10 26 -8 41 3 24 -2 29 -47 46 -33 12 -56 29 -67 47
-9 15 -27 33 -40 39 -79 36 -236 43 -330 13z"/>
<path d="M5703 5220 c-76 -16 -129 -55 -190 -143 -24 -34 -27 -49 -27 -111 1
-76 26 -183 47 -202 6 -6 31 -16 53 -22 25 -7 49 -22 58 -37 28 -42 82 -25 70
22 -4 14 1 25 14 34 10 8 26 28 35 45 9 17 30 37 46 44 31 13 35 20 47 82 5
31 2 43 -20 69 -43 51 -24 117 23 75 10 -9 23 -16 29 -16 7 0 13 -6 14 -12 14
-116 10 -161 -21 -238 -17 -40 -28 -77 -25 -82 18 -29 86 25 110 87 12 33 15
59 10 97 -4 29 -8 69 -9 88 -2 32 -39 100 -59 108 -5 2 -19 25 -33 52 -21 41
-30 49 -69 59 -25 6 -48 11 -53 10 -4 -1 -27 -5 -50 -9z m72 -110 c0 -32 -33
-38 -65 -12 -31 25 -18 44 28 40 32 -3 37 -6 37 -28z"/>
<path d="M5811 4711 c-8 -6 -9 -11 -3 -15 6 -3 14 -1 17 5 9 14 2 20 -14 10z"/>
<path d="M4890 4150 c0 -12 11 -31 25 -42 14 -11 25 -26 25 -33 0 -23 59 -84
117 -121 34 -22 53 -41 53 -53 0 -11 9 -26 20 -34 17 -12 18 -18 8 -48 -6 -19
-14 -41 -18 -49 -9 -20 -188 -139 -220 -147 -14 -3 -63 -21 -110 -40 -78 -31
-92 -34 -190 -32 -123 1 -145 -5 -134 -35 3 -11 7 -120 8 -241 2 -246 13 -305
66 -347 15 -13 33 -33 39 -46 7 -12 26 -29 44 -38 18 -8 48 -24 67 -35 l35
-20 51 57 c51 56 52 56 95 50 133 -20 130 -20 186 21 29 21 53 43 53 50 0 13
33 64 63 99 26 29 67 147 77 219 12 84 26 142 37 157 13 17 23 105 16 142 -4
17 -29 53 -60 85 -46 46 -54 59 -48 80 3 14 8 46 12 70 4 30 20 63 47 100 62
84 92 176 64 197 -36 26 -100 37 -233 39 -77 2 -152 6 -167 10 -24 6 -28 4
-28 -15z"/>
<path d="M6250 3863 c0 -14 15 -28 40 -40 29 -13 115 -25 123 -16 13 13 -15
43 -51 53 -43 12 -112 13 -112 3z"/>
</g>
</svg>
