<?xml version="1.0" standalone="no"?>
<!DOCTYPE svg PUBLIC "-//W3C//DTD SVG 20010904//EN"
 "http://www.w3.org/TR/2001/REC-SVG-20010904/DTD/svg10.dtd">
<svg version="1.0" xmlns="http://www.w3.org/2000/svg"
 width="700.000000pt" height="700.000000pt" viewBox="0 0 700.000000 700.000000"
 preserveAspectRatio="xMidYMid meet">
<metadata>
Created by potrace 1.11, written by Peter Selinger 2001-2013
</metadata>
<g transform="translate(0.000000,700.000000) scale(0.100000,-0.100000)"
fill="#000000" stroke="none">
<path d="M3250 6994 c-19 -2 -82 -9 -140 -15 -643 -67 -1282 -332 -1795 -745
-727 -584 -1175 -1394 -1291 -2334 -21 -169 -24 -595 -6 -755 55 -465 162
-828 365 -1230 489 -974 1435 -1675 2512 -1860 230 -40 347 -49 605 -49 258 0
375 9 605 49 1109 191 2057 911 2550 1939 538 1119 437 2446 -263 3476 -451
664 -1115 1151 -1888 1385 -182 55 -352 91 -574 121 -108 15 -594 28 -680 18z
m585 -235 c310 -31 626 -111 922 -232 142 -59 228 -101 381 -190 l122 -71 0
-893 c0 -491 -3 -893 -8 -893 -10 0 -2257 2248 -2252 2254 9 8 173 28 300 36
141 9 386 4 535 -11z m1770 -750 c197 -162 421 -408 582 -638 227 -323 405
-718 494 -1094 l23 -98 -612 -612 -612 -612 0 1579 c0 1503 1 1578 18 1564 9
-8 58 -48 107 -89z m-998 -1201 l452 -453 5 -180 c8 -283 15 -608 22 -1022 6
-343 8 -383 23 -383 14 -1 14 -2 -1 -11 -15 -8 -18 -25 -18 -102 l0 -92 -407
-407 -408 -408 -715 0 -715 0 -307 307 c-170 170 -308 311 -308 315 0 5 9 8
20 8 25 0 37 24 32 60 -4 31 -22 32 -22 1 0 -32 -19 -40 -51 -22 -40 22 -46
47 -18 77 27 29 63 31 82 4 13 -19 15 -19 29 -3 8 10 18 30 22 45 3 15 13 33
21 42 8 8 15 20 15 26 0 7 16 27 35 44 32 30 35 37 37 97 2 60 1 66 -30 98
-29 30 -32 39 -32 92 0 33 -7 76 -15 96 -8 19 -15 51 -15 70 0 40 -19 123 -32
139 -4 6 -7 37 -6 68 2 43 -2 58 -15 68 -14 11 -17 25 -15 72 3 55 1 60 -20
65 -23 6 -27 11 -76 102 -16 30 -37 66 -47 81 -24 33 -26 98 -3 98 19 0 86
-66 114 -113 11 -18 20 -25 21 -17 0 8 3 26 5 40 2 14 4 47 4 73 l0 48 32 -3
33 -3 7 60 c17 138 20 155 32 155 7 0 22 13 34 30 19 26 22 39 19 114 -2 47 0
91 4 98 14 23 41 -16 50 -73 6 -40 15 -58 36 -76 35 -28 59 -29 101 -3 27 17
32 25 32 59 0 32 5 43 29 60 16 12 34 21 40 21 6 0 13 11 17 25 3 14 10 25 15
25 5 0 9 15 9 33 1 39 17 63 54 77 15 5 26 16 24 22 -3 7 3 20 12 30 13 15 22
16 50 8 20 -6 38 -6 43 -1 11 11 -1 53 -14 46 -5 -4 -22 3 -38 14 -16 12 -34
21 -40 21 -17 0 -111 49 -111 58 0 6 -58 77 -77 94 -52 47 -107 88 -118 88 -7
0 -22 12 -33 27 -11 15 -24 23 -30 19 -15 -9 -16 -82 -2 -91 6 -3 10 -39 10
-79 0 -68 -2 -74 -25 -84 -14 -7 -39 -12 -56 -12 -16 0 -44 -6 -62 -14 -35
-14 -77 -6 -77 15 0 7 5 28 12 46 16 43 0 56 -59 48 -23 -3 -44 -2 -47 3 -6
10 96 112 112 112 5 0 22 12 39 28 16 15 41 36 54 46 16 14 19 21 10 24 -8 3
57 75 165 183 l179 179 710 0 710 0 452 -452z m-2297 -553 c7 -9 10 -18 7 -21
-10 -11 -37 5 -37 21 0 19 14 19 30 0z m-444 -217 c5 -7 8 -24 8 -38 0 -30
-29 -38 -59 -17 -18 14 -18 16 -2 41 19 28 41 34 53 14z m265 -58 c34 -18 23
-140 -12 -140 -16 0 -39 32 -39 54 0 13 -9 33 -20 46 -11 13 -20 26 -20 31 0
19 61 25 91 9z m4636 -396 c4 -167 1 -303 -6 -380 -50 -501 -202 -969 -448
-1379 l-48 -80 -840 -3 -840 -2 1080 1080 c1042 1042 1080 1079 1088 1052 5
-15 11 -144 14 -288z m-4817 221 c16 -81 13 -231 -5 -265 -17 -32 -45 -46 -57
-28 -10 15 1 182 13 216 5 13 9 42 9 65 0 52 10 91 21 80 4 -4 13 -35 19 -68z
m-83 -716 c44 -25 58 -39 67 -67 4 -12 14 -22 22 -22 12 0 19 -14 12 -23 -2
-2 4 -14 13 -27 9 -14 19 -36 23 -50 9 -32 35 -216 42 -295 l5 -60 -155 155
-156 155 0 101 c0 56 3 116 6 133 6 30 8 31 46 26 22 -4 55 -15 75 -26z m3283
-371 c0 -26 -24 -18 -28 10 -3 16 1 20 12 16 9 -3 16 -15 16 -26z m-2936 -139
c-3 -5 -10 -7 -15 -3 -5 3 -7 10 -3 15 3 5 10 7 15 3 5 -3 7 -10 3 -15z m2386
-1066 l-1505 -3 310 -310 c170 -171 308 -310 305 -310 -3 0 -147 142 -320 315
l-315 315 1515 -2 1515 -3 -1505 -2z m1490 -16 c0 -2 -10 -12 -22 -23 l-23
-19 19 23 c18 21 26 27 26 19z m-80 -97 c-23 -27 -47 -53 -53 -57 -7 -4 10 19
37 50 27 31 51 57 53 57 3 0 -14 -22 -37 -50z m-60 -73 c0 -1 -64 -65 -142
-142 l-143 -140 140 143 c130 132 145 147 145 139z m-290 -280 c0 -2 -15 -16
-32 -33 l-33 -29 29 33 c28 30 36 37 36 29z m-70 -60 c0 -2 -10 -12 -22 -23
l-23 -19 19 23 c18 21 26 27 26 19z m-63 -55 c-10 -10 -38 -34 -65 -52 -57
-41 -49 -30 21 27 57 46 69 52 44 25z m-117 -86 c0 -3 -15 -14 -32 -26 l-33
-22 30 26 c31 27 35 29 35 22z m-105 -76 c-3 -5 -16 -15 -28 -21 -19 -9 -19
-8 3 10 28 23 34 26 25 11z m-55 -35 c0 -2 -10 -9 -22 -15 -22 -11 -22 -10 -4
4 21 17 26 19 26 11z m-50 -30 c0 -2 -10 -9 -22 -15 -22 -11 -22 -10 -4 4 21
17 26 19 26 11z m-50 -30 c0 -2 -10 -9 -22 -15 -22 -11 -22 -10 -4 4 21 17 26
19 26 11z m-50 -30 c0 -3 -31 -21 -70 -40 -38 -19 -70 -33 -70 -30 0 4 126 72
138 75 1 0 2 -2 2 -5z m-220 -115 c-8 -5 -19 -10 -25 -10 -5 0 -3 5 5 10 8 5
20 10 25 10 6 0 3 -5 -5 -10z m-80 -35 c-14 -8 -29 -14 -35 -14 -5 0 1 6 15
14 14 8 30 14 35 14 6 0 -1 -6 -15 -14z m-80 -35 c-8 -5 -19 -10 -25 -10 -5 0
-3 5 5 10 8 5 20 10 25 10 6 0 3 -5 -5 -10z m-465 -120 c10 -11 16 -20 13 -20
-3 0 -13 9 -23 20 -10 11 -16 20 -13 20 3 0 13 -9 23 -20z m152 14 c-3 -3 -12
-4 -19 -1 -8 3 -5 6 6 6 11 1 17 -2 13 -5z m-70 -20 c-3 -3 -12 -4 -19 -1 -8
3 -5 6 6 6 11 1 17 -2 13 -5z"/>
<path d="M2956 5153 c103 -150 134 -185 155 -180 11 3 19 1 19 -5 0 -5 5 -6
12 -2 6 4 9 3 5 -2 -3 -5 -2 -25 3 -44 l8 -35 1 46 c1 25 -2 107 -6 182 l-6
137 -129 0 -129 0 67 -97z"/>
<path d="M2965 4677 c-41 -63 -37 -114 11 -150 28 -21 83 -32 101 -20 7 5 12
37 13 78 2 101 2 101 -22 102 -13 1 -37 5 -55 8 -26 5 -35 2 -48 -18z"/>
<path d="M4194 4629 c-8 -17 -18 -56 -21 -87 l-6 -55 46 5 c26 3 47 2 47 -3 0
-14 43 -33 90 -39 43 -5 45 -6 42 -35 -2 -16 -8 -40 -14 -52 -6 -13 -9 -25 -6
-28 10 -10 58 7 58 20 0 7 7 15 15 19 19 7 19 43 1 62 -8 8 -21 11 -29 8 -9
-3 -20 2 -26 14 -7 13 -26 22 -56 26 -25 4 -45 11 -45 17 0 5 -7 9 -15 9 -8 0
-15 6 -16 13 -1 28 -8 50 -18 60 -6 6 -6 16 2 27 8 14 8 22 -2 34 -19 23 -28
20 -47 -15z"/>
<path d="M3850 4457 c0 -20 21 -37 46 -37 12 0 25 -6 27 -12 4 -10 8 -9 16 2
8 11 7 16 -4 18 -8 2 -15 9 -15 17 0 7 -7 16 -16 19 -27 10 -54 7 -54 -7z"/>
<path d="M4237 4271 c9 -35 28 -43 48 -21 21 24 20 26 -22 34 -28 7 -31 5 -26
-13z"/>
<path d="M3005 3910 c-84 -8 -164 -48 -204 -102 -31 -40 -32 -47 -27 -103 2
-33 12 -74 20 -90 9 -17 16 -38 16 -48 0 -26 45 -64 118 -99 60 -29 67 -30
162 -26 55 3 97 1 94 -4 -3 -4 10 -8 29 -8 51 0 101 68 112 155 10 76 23 128
33 134 13 8 -34 81 -53 81 -12 0 -75 67 -75 80 0 22 -124 39 -225 30z"/>
<path d="M4063 3884 c-46 -20 -78 -50 -115 -107 -29 -46 -32 -57 -36 -158 l-5
-109 27 -10 c15 -5 36 -10 48 -10 11 0 39 -14 63 -31 40 -29 49 -31 92 -25 26
3 64 17 85 31 21 14 42 25 48 25 25 0 74 48 92 89 15 35 17 57 12 105 -8 72
-27 107 -94 170 -49 46 -50 46 -117 45 -37 0 -83 -7 -100 -15z m157 -68 c0
-20 -19 -31 -32 -18 -6 6 -7 15 -4 21 10 16 36 13 36 -3z"/>
<path d="M3321 3051 c-12 -8 -11 -16 5 -56 10 -26 29 -58 42 -71 12 -14 22
-29 22 -34 0 -6 15 -16 33 -24 53 -23 81 -63 84 -123 l2 -53 -55 -36 c-54 -36
-114 -62 -144 -64 -27 -1 -95 -75 -108 -118 -10 -34 -10 -54 4 -119 9 -43 16
-108 16 -145 0 -63 2 -69 34 -103 19 -20 34 -41 34 -46 0 -20 53 -89 74 -95
11 -4 24 -12 28 -18 11 -16 118 -12 158 7 19 8 55 19 80 22 97 15 141 60 191
195 7 19 21 48 32 63 32 46 47 205 22 231 -8 8 -13 20 -10 28 5 12 -54 45
-111 62 -12 4 -47 33 -78 66 l-56 59 2 65 c1 36 5 66 9 66 4 0 15 17 24 38 10
20 26 45 36 55 11 10 19 31 19 48 0 25 -6 33 -34 44 -19 8 -36 19 -38 25 -1 5
-39 13 -83 16 -44 3 -93 10 -109 15 -17 5 -34 5 -40 0 -6 -5 -20 -5 -31 0 -27
10 -37 10 -54 0z"/>
</g>
</svg>
