<?xml version="1.0" encoding="utf-8"?>
<!-- Generator: Adobe Illustrator 19.1.1, SVG Export Plug-In . SVG Version: 6.00 Build 0)  -->
<svg version="1.1" xmlns="http://www.w3.org/2000/svg" xmlns:xlink="http://www.w3.org/1999/xlink" x="0px" y="0px"
	 viewBox="0 0 568 568" style="enable-background:new 0 0 568 568;" xml:space="preserve">
<style type="text/css">
	.st0{stroke:#000000;stroke-miterlimit:10;}
	.st1{fill:#FFFFFF;}
	.st2{fill:#020202;}
</style>
<g id="circ">
	<circle class="st0" cx="284" cy="284" r="283.5"/>
</g>
<g id="cam">
	<circle class="st1" cx="284" cy="242" r="34"/>
	<g>
		<g>
			<path class="st1" d="M378.25,330.5h-188.5c-21.313,0-38.75-17.438-38.75-38.75v-102.5c0-21.313,17.438-38.75,38.75-38.75h188.5
				c21.313,0,38.75,17.438,38.75,38.75v102.5C417,313.063,399.563,330.5,378.25,330.5z"/>
			<path class="st1" d="M339.5,151.5v-1c0-13.75-11.25-25-25-25h-61c-13.75,0-25,11.25-25,25v1c0,13.75,11.25,25,25,25h61
				C328.25,176.5,339.5,165.25,339.5,151.5z"/>
		</g>
		<path class="st2" d="M284,184c-32.861,0-59.5,26.639-59.5,59.5S251.139,303,284,303s59.5-26.639,59.5-59.5S316.861,184,284,184z"
			/>
		<circle class="st1" cx="284" cy="242" r="41"/>
	</g>
</g>
<g id="arrows">
	<path class="st1" d="M119.319,303.25C11.569,388,229.354,389.254,236.587,392.252C236.819,378.5,236.819,370,236.819,370
		l53.75,46.5l-55,46.75c0,0-0.25-5.5,0-26.75C182.569,434.25-20.431,368.5,119.319,303.25"/>
	<path class="st1" d="M320.319,436.25c-0.496-33.455-0.378-45.759-0.247-45.75c6.446,0.452,246.137-9.333,125.235-86.586
		C521.569,321.5,523.986,417.833,320.319,436.25z"/>
	<path class="st1" d="M306.569,482.5"/>
</g>
</svg>
